<?xml version="1.0" encoding="UTF-8" standalone="no"?>
<!DOCTYPE svg PUBLIC "-//W3C//DTD SVG 1.1//EN"
 "http://www.w3.org/Graphics/SVG/1.1/DTD/svg11.dtd">
<!-- Generated by graphviz version 2.40.1 (20161225.0304)
 -->
<!-- Title: G Pages: 1 -->
<svg width="515pt" height="1062pt"
 viewBox="0.00 0.00 514.78 1062.00" xmlns="http://www.w3.org/2000/svg" xmlns:xlink="http://www.w3.org/1999/xlink">
<g id="graph0" class="graph" transform="scale(1 1) rotate(0) translate(4 1058)">
<title>G</title>
<polygon fill="#ffffff" stroke="transparent" points="-4,4 -4,-1058 510.7832,-1058 510.7832,4 -4,4"/>
<g id="clust1" class="cluster">
<title>cluster_Global</title>
<path fill="none" stroke="#c0c0c0" d="M20,-152C20,-152 486.7832,-152 486.7832,-152 492.7832,-152 498.7832,-158 498.7832,-164 498.7832,-164 498.7832,-1034 498.7832,-1034 498.7832,-1040 492.7832,-1046 486.7832,-1046 486.7832,-1046 20,-1046 20,-1046 14,-1046 8,-1040 8,-1034 8,-1034 8,-164 8,-164 8,-158 14,-152 20,-152"/>
<text text-anchor="middle" x="253.3916" y="-1033.2" font-family="Times,serif" font-size="11.00" fill="#c0c0c0">Global</text>
</g>
<g id="clust2" class="cluster">
<title>cluster_\Thumber</title>
<path fill="none" stroke="#c0c0c0" d="M273.7832,-160C273.7832,-160 478.7832,-160 478.7832,-160 484.7832,-160 490.7832,-166 490.7832,-172 490.7832,-172 490.7832,-1006 490.7832,-1006 490.7832,-1012 484.7832,-1018 478.7832,-1018 478.7832,-1018 273.7832,-1018 273.7832,-1018 267.7832,-1018 261.7832,-1012 261.7832,-1006 261.7832,-1006 261.7832,-172 261.7832,-172 261.7832,-166 267.7832,-160 273.7832,-160"/>
<text text-anchor="middle" x="376.2832" y="-1005.2" font-family="Times,serif" font-size="11.00" fill="#c0c0c0">Thumber</text>
</g>
<g id="clust3" class="cluster">
<title>cluster_\Thumber\Cake</title>
<path fill="none" stroke="#c0c0c0" d="M281.7832,-168C281.7832,-168 470.7832,-168 470.7832,-168 476.7832,-168 482.7832,-174 482.7832,-180 482.7832,-180 482.7832,-978 482.7832,-978 482.7832,-984 476.7832,-990 470.7832,-990 470.7832,-990 281.7832,-990 281.7832,-990 275.7832,-990 269.7832,-984 269.7832,-978 269.7832,-978 269.7832,-180 269.7832,-180 269.7832,-174 275.7832,-168 281.7832,-168"/>
<text text-anchor="middle" x="376.2832" y="-977.2" font-family="Times,serif" font-size="11.00" fill="#c0c0c0">Cake</text>
</g>
<g id="clust4" class="cluster">
<title>cluster_\Thumber\Cake\Utility</title>
<path fill="none" stroke="#c0c0c0" d="M331.2832,-836C331.2832,-836 421.2832,-836 421.2832,-836 427.2832,-836 433.2832,-842 433.2832,-848 433.2832,-848 433.2832,-950 433.2832,-950 433.2832,-956 427.2832,-962 421.2832,-962 421.2832,-962 331.2832,-962 331.2832,-962 325.2832,-962 319.2832,-956 319.2832,-950 319.2832,-950 319.2832,-848 319.2832,-848 319.2832,-842 325.2832,-836 331.2832,-836"/>
<text text-anchor="middle" x="376.2832" y="-949.2" font-family="Times,serif" font-size="11.00" fill="#c0c0c0">Utility</text>
</g>
<g id="clust5" class="cluster">
<title>cluster_\Thumber\Cake\View</title>
<path fill="none" stroke="#c0c0c0" d="M326.7832,-720C326.7832,-720 425.7832,-720 425.7832,-720 431.7832,-720 437.7832,-726 437.7832,-732 437.7832,-732 437.7832,-816 437.7832,-816 437.7832,-822 431.7832,-828 425.7832,-828 425.7832,-828 326.7832,-828 326.7832,-828 320.7832,-828 314.7832,-822 314.7832,-816 314.7832,-816 314.7832,-732 314.7832,-732 314.7832,-726 320.7832,-720 326.7832,-720"/>
<text text-anchor="middle" x="376.2832" y="-815.2" font-family="Times,serif" font-size="11.00" fill="#c0c0c0">View</text>
</g>
<g id="clust6" class="cluster">
<title>cluster_\Thumber\Cake\View\Helper</title>
<path fill="none" stroke="#c0c0c0" d="M334.7832,-728C334.7832,-728 417.7832,-728 417.7832,-728 423.7832,-728 429.7832,-734 429.7832,-740 429.7832,-740 429.7832,-788 429.7832,-788 429.7832,-794 423.7832,-800 417.7832,-800 417.7832,-800 334.7832,-800 334.7832,-800 328.7832,-800 322.7832,-794 322.7832,-788 322.7832,-788 322.7832,-740 322.7832,-740 322.7832,-734 328.7832,-728 334.7832,-728"/>
<text text-anchor="middle" x="376.2832" y="-787.2" font-family="Times,serif" font-size="11.00" fill="#c0c0c0">Helper</text>
</g>
<g id="clust7" class="cluster">
<title>cluster_\Thumber\Cake\Command</title>
<path fill="none" stroke="#c0c0c0" d="M321.2832,-586C321.2832,-586 431.2832,-586 431.2832,-586 437.2832,-586 443.2832,-592 443.2832,-598 443.2832,-598 443.2832,-700 443.2832,-700 443.2832,-706 437.2832,-712 431.2832,-712 431.2832,-712 321.2832,-712 321.2832,-712 315.2832,-712 309.2832,-706 309.2832,-700 309.2832,-700 309.2832,-598 309.2832,-598 309.2832,-592 315.2832,-586 321.2832,-586"/>
<text text-anchor="middle" x="376.2832" y="-699.2" font-family="Times,serif" font-size="11.00" fill="#c0c0c0">Command</text>
</g>
<g id="clust8" class="cluster">
<title>cluster_\Thumber\Cake\TestSuite</title>
<path fill="none" stroke="#c0c0c0" d="M304.2832,-452C304.2832,-452 448.2832,-452 448.2832,-452 454.2832,-452 460.2832,-458 460.2832,-464 460.2832,-464 460.2832,-566 460.2832,-566 460.2832,-572 454.2832,-578 448.2832,-578 448.2832,-578 304.2832,-578 304.2832,-578 298.2832,-578 292.2832,-572 292.2832,-566 292.2832,-566 292.2832,-464 292.2832,-464 292.2832,-458 298.2832,-452 304.2832,-452"/>
<text text-anchor="middle" x="376.2832" y="-565.2" font-family="Times,serif" font-size="11.00" fill="#c0c0c0">TestSuite</text>
</g>
<g id="clust9" class="cluster">
<title>cluster_\Thumber\Cake\Http</title>
<path fill="none" stroke="#c0c0c0" d="M289.7832,-336C289.7832,-336 462.7832,-336 462.7832,-336 468.7832,-336 474.7832,-342 474.7832,-348 474.7832,-348 474.7832,-432 474.7832,-432 474.7832,-438 468.7832,-444 462.7832,-444 462.7832,-444 289.7832,-444 289.7832,-444 283.7832,-444 277.7832,-438 277.7832,-432 277.7832,-432 277.7832,-348 277.7832,-348 277.7832,-342 283.7832,-336 289.7832,-336"/>
<text text-anchor="middle" x="376.2832" y="-431.2" font-family="Times,serif" font-size="11.00" fill="#c0c0c0">Http</text>
</g>
<g id="clust10" class="cluster">
<title>cluster_\Thumber\Cake\Http\Exception</title>
<path fill="none" stroke="#c0c0c0" d="M297.7832,-344C297.7832,-344 454.7832,-344 454.7832,-344 460.7832,-344 466.7832,-350 466.7832,-356 466.7832,-356 466.7832,-404 466.7832,-404 466.7832,-410 460.7832,-416 454.7832,-416 454.7832,-416 297.7832,-416 297.7832,-416 291.7832,-416 285.7832,-410 285.7832,-404 285.7832,-404 285.7832,-356 285.7832,-356 285.7832,-350 291.7832,-344 297.7832,-344"/>
<text text-anchor="middle" x="376.2832" y="-403.2" font-family="Times,serif" font-size="11.00" fill="#c0c0c0">Exception</text>
</g>
<g id="clust11" class="cluster">
<title>cluster_\Thumber\Cake\Routing</title>
<path fill="none" stroke="#c0c0c0" d="M299.7832,-220C299.7832,-220 452.7832,-220 452.7832,-220 458.7832,-220 464.7832,-226 464.7832,-232 464.7832,-232 464.7832,-316 464.7832,-316 464.7832,-322 458.7832,-328 452.7832,-328 452.7832,-328 299.7832,-328 299.7832,-328 293.7832,-328 287.7832,-322 287.7832,-316 287.7832,-316 287.7832,-232 287.7832,-232 287.7832,-226 293.7832,-220 299.7832,-220"/>
<text text-anchor="middle" x="376.2832" y="-315.2" font-family="Times,serif" font-size="11.00" fill="#c0c0c0">Routing</text>
</g>
<g id="clust12" class="cluster">
<title>cluster_\Thumber\Cake\Routing\Middleware</title>
<path fill="none" stroke="#c0c0c0" d="M307.7832,-228C307.7832,-228 444.7832,-228 444.7832,-228 450.7832,-228 456.7832,-234 456.7832,-240 456.7832,-240 456.7832,-288 456.7832,-288 456.7832,-294 450.7832,-300 444.7832,-300 444.7832,-300 307.7832,-300 307.7832,-300 301.7832,-300 295.7832,-294 295.7832,-288 295.7832,-288 295.7832,-240 295.7832,-240 295.7832,-234 301.7832,-228 307.7832,-228"/>
<text text-anchor="middle" x="376.2832" y="-287.2" font-family="Times,serif" font-size="11.00" fill="#c0c0c0">Middleware</text>
</g>
<g id="clust13" class="cluster">
<title>cluster_Global\Thumber</title>
<path fill="none" stroke="#c0c0c0" d="M67.8472,-289C67.8472,-289 185.936,-289 185.936,-289 191.936,-289 197.936,-295 197.936,-301 197.936,-301 197.936,-349 197.936,-349 197.936,-355 191.936,-361 185.936,-361 185.936,-361 67.8472,-361 67.8472,-361 61.8472,-361 55.8472,-355 55.8472,-349 55.8472,-349 55.8472,-301 55.8472,-301 55.8472,-295 61.8472,-289 67.8472,-289"/>
<text text-anchor="middle" x="126.8916" y="-348.2" font-family="Times,serif" font-size="11.00" fill="#c0c0c0">Thumber</text>
</g>
<g id="clust14" class="cluster">
<title>cluster_Global\Cake</title>
<path fill="none" stroke="#c0c0c0" d="M72.1961,-601C72.1961,-601 181.5871,-601 181.5871,-601 187.5871,-601 193.5871,-607 193.5871,-613 193.5871,-613 193.5871,-697 193.5871,-697 193.5871,-703 187.5871,-709 181.5871,-709 181.5871,-709 72.1961,-709 72.1961,-709 66.1961,-709 60.1961,-703 60.1961,-697 60.1961,-697 60.1961,-613 60.1961,-613 60.1961,-607 66.1961,-601 72.1961,-601"/>
<text text-anchor="middle" x="126.8916" y="-696.2" font-family="Times,serif" font-size="11.00" fill="#c0c0c0">Cake</text>
</g>
<g id="clust15" class="cluster">
<title>cluster_Global\Cake\Core</title>
<path fill="none" stroke="#c0c0c0" d="M80.1961,-609C80.1961,-609 173.5871,-609 173.5871,-609 179.5871,-609 185.5871,-615 185.5871,-621 185.5871,-621 185.5871,-669 185.5871,-669 185.5871,-675 179.5871,-681 173.5871,-681 173.5871,-681 80.1961,-681 80.1961,-681 74.1961,-681 68.1961,-675 68.1961,-669 68.1961,-669 68.1961,-621 68.1961,-621 68.1961,-615 74.1961,-609 80.1961,-609"/>
<text text-anchor="middle" x="126.8916" y="-668.2" font-family="Times,serif" font-size="11.00" fill="#c0c0c0">Core</text>
</g>
<g id="clust16" class="cluster">
<title>cluster_Global\MeTools</title>
<path fill="none" stroke="#c0c0c0" d="M79.9954,-369C79.9954,-369 173.7878,-369 173.7878,-369 179.7878,-369 185.7878,-375 185.7878,-381 185.7878,-381 185.7878,-465 185.7878,-465 185.7878,-471 179.7878,-477 173.7878,-477 173.7878,-477 79.9954,-477 79.9954,-477 73.9954,-477 67.9954,-471 67.9954,-465 67.9954,-465 67.9954,-381 67.9954,-381 67.9954,-375 73.9954,-369 79.9954,-369"/>
<text text-anchor="middle" x="126.8916" y="-464.2" font-family="Times,serif" font-size="11.00" fill="#c0c0c0">MeTools</text>
</g>
<g id="clust17" class="cluster">
<title>cluster_Global\MeTools\TestSuite</title>
<path fill="none" stroke="#c0c0c0" d="M87.9954,-377C87.9954,-377 165.7878,-377 165.7878,-377 171.7878,-377 177.7878,-383 177.7878,-389 177.7878,-389 177.7878,-437 177.7878,-437 177.7878,-443 171.7878,-449 165.7878,-449 165.7878,-449 87.9954,-449 87.9954,-449 81.9954,-449 75.9954,-443 75.9954,-437 75.9954,-437 75.9954,-389 75.9954,-389 75.9954,-383 81.9954,-377 87.9954,-377"/>
<text text-anchor="middle" x="126.8916" y="-436.2" font-family="Times,serif" font-size="11.00" fill="#c0c0c0">TestSuite</text>
</g>
<g id="clust18" class="cluster">
<title>cluster_Global\Tools</title>
<path fill="none" stroke="#c0c0c0" d="M28,-485C28,-485 225.7832,-485 225.7832,-485 231.7832,-485 237.7832,-491 237.7832,-497 237.7832,-497 237.7832,-581 237.7832,-581 237.7832,-587 231.7832,-593 225.7832,-593 225.7832,-593 28,-593 28,-593 22,-593 16,-587 16,-581 16,-581 16,-497 16,-497 16,-491 22,-485 28,-485"/>
<text text-anchor="middle" x="126.8916" y="-580.2" font-family="Times,serif" font-size="11.00" fill="#c0c0c0">Tools</text>
</g>
<g id="clust19" class="cluster">
<title>cluster_Global\Tools\Exception</title>
<path fill="none" stroke="#c0c0c0" d="M36,-493C36,-493 217.7832,-493 217.7832,-493 223.7832,-493 229.7832,-499 229.7832,-505 229.7832,-505 229.7832,-553 229.7832,-553 229.7832,-559 223.7832,-565 217.7832,-565 217.7832,-565 36,-565 36,-565 30,-565 24,-559 24,-553 24,-553 24,-505 24,-505 24,-499 30,-493 36,-493"/>
<text text-anchor="middle" x="126.8916" y="-552.2" font-family="Times,serif" font-size="11.00" fill="#c0c0c0">Exception</text>
</g>
<!-- \\Thumber\\Cake\\Utility\\ThumbManager -->
<g id="node1" class="node">
<title>\\Thumber\\Cake\\Utility\\ThumbManager</title>
<polygon fill="none" stroke="#000000" points="425.2832,-880 327.2832,-880 327.2832,-844 425.2832,-844 425.2832,-880"/>
<text text-anchor="middle" x="376.2832" y="-859.2" font-family="Courier,monospace" font-size="11.00" fill="#000000">ThumbManager</text>
</g>
<!-- ThumbManager -->
<g id="node15" class="node">
<title>ThumbManager</title>
<ellipse fill="none" stroke="#000000" cx="126.8916" cy="-126" rx="68.4888" ry="18"/>
<text text-anchor="middle" x="126.8916" y="-122.3" font-family="Times,serif" font-size="14.00" fill="#000000">ThumbManager</text>
</g>
<!-- \\Thumber\\Cake\\Utility\\ThumbManager&#45;&gt;ThumbManager -->
<g id="edge1" class="edge">
<title>\\Thumber\\Cake\\Utility\\ThumbManager&#45;&gt;ThumbManager</title>
<path fill="none" stroke="#000000" d="M327.1455,-849.726C303.2427,-841.0703 276.5464,-826.8278 261.7832,-804 230.4338,-755.5256 256.3588,-339.6581 237.7832,-285 219.7677,-231.9901 178.3378,-180.7316 151.5326,-151.3339"/>
<polygon fill="none" stroke="#000000" points="153.7594,-148.588 144.3916,-143.6387 148.6283,-153.3496 153.7594,-148.588"/>
</g>
<!-- \\Thumber\\Cake\\Utility\\ThumbCreator -->
<g id="node2" class="node">
<title>\\Thumber\\Cake\\Utility\\ThumbCreator</title>
<polygon fill="none" stroke="#000000" points="425.2832,-934 327.2832,-934 327.2832,-898 425.2832,-898 425.2832,-934"/>
<text text-anchor="middle" x="376.2832" y="-913.2" font-family="Courier,monospace" font-size="11.00" fill="#000000">ThumbCreator</text>
</g>
<!-- ThumbCreator -->
<g id="node11" class="node">
<title>ThumbCreator</title>
<ellipse fill="none" stroke="#000000" cx="126.8916" cy="-315" rx="63.0888" ry="18"/>
<text text-anchor="middle" x="126.8916" y="-311.3" font-family="Times,serif" font-size="14.00" fill="#c0c0c0">ThumbCreator</text>
</g>
<!-- \\Thumber\\Cake\\Utility\\ThumbCreator&#45;&gt;ThumbCreator -->
<g id="edge7" class="edge">
<title>\\Thumber\\Cake\\Utility\\ThumbCreator&#45;&gt;ThumbCreator</title>
<path fill="none" stroke="#000000" d="M327.2189,-917.2299C303.7925,-915.0278 277.5027,-907.9361 261.7832,-889 225.123,-844.8383 268.6436,-421.3927 237.7832,-373 225.2215,-353.3019 203.6474,-339.9186 182.8484,-331.0205"/>
<polygon fill="none" stroke="#000000" points="183.9668,-327.6985 173.3818,-327.2413 181.3714,-334.1996 183.9668,-327.6985"/>
</g>
<!-- \\Thumber\\Cake\\View\\Helper\\ThumbHelper -->
<g id="node3" class="node">
<title>\\Thumber\\Cake\\View\\Helper\\ThumbHelper</title>
<polygon fill="none" stroke="#000000" points="421.7832,-772 330.7832,-772 330.7832,-736 421.7832,-736 421.7832,-772"/>
<text text-anchor="middle" x="376.2832" y="-751.2" font-family="Courier,monospace" font-size="11.00" fill="#000000">ThumbHelper</text>
</g>
<!-- Helper -->
<g id="node16" class="node">
<title>Helper</title>
<ellipse fill="none" stroke="#000000" cx="126.8916" cy="-72" rx="34.394" ry="18"/>
<text text-anchor="middle" x="126.8916" y="-68.3" font-family="Times,serif" font-size="14.00" fill="#000000">Helper</text>
</g>
<!-- \\Thumber\\Cake\\View\\Helper\\ThumbHelper&#45;&gt;Helper -->
<g id="edge2" class="edge">
<title>\\Thumber\\Cake\\View\\Helper\\ThumbHelper&#45;&gt;Helper</title>
<path fill="none" stroke="#000000" d="M330.538,-750.9739C306.0711,-746.7802 277.7667,-737.2619 261.7832,-716 220.5575,-661.1601 281.2115,-152.1126 237.7832,-99 221.9955,-79.6918 194.924,-72.8434 171.4817,-70.8701"/>
<polygon fill="none" stroke="#000000" points="171.5454,-67.368 161.3614,-70.2897 171.1446,-74.3566 171.5454,-67.368"/>
</g>
<!-- \\Thumber\\Cake\\Command\\ClearAllCommand -->
<g id="node4" class="node">
<title>\\Thumber\\Cake\\Command\\ClearAllCommand</title>
<polygon fill="none" stroke="#000000" points="435.2832,-684 317.2832,-684 317.2832,-648 435.2832,-648 435.2832,-684"/>
<text text-anchor="middle" x="376.2832" y="-663.2" font-family="Courier,monospace" font-size="11.00" fill="#000000">ClearAllCommand</text>
</g>
<!-- Command -->
<g id="node17" class="node">
<title>Command</title>
<ellipse fill="none" stroke="#000000" cx="126.8916" cy="-18" rx="48.1917" ry="18"/>
<text text-anchor="middle" x="126.8916" y="-14.3" font-family="Times,serif" font-size="14.00" fill="#000000">Command</text>
</g>
<!-- \\Thumber\\Cake\\Command\\ClearAllCommand&#45;&gt;Command -->
<g id="edge3" class="edge">
<title>\\Thumber\\Cake\\Command\\ClearAllCommand&#45;&gt;Command</title>
<path fill="none" stroke="#000000" d="M317.1179,-666.0302C296.5259,-662.84 275.2353,-655.3057 261.7832,-639 219.7476,-588.0478 279.6336,-96.1043 237.7832,-45 225.0079,-29.3999 204.867,-21.9358 185.2349,-18.6045"/>
<polygon fill="none" stroke="#000000" points="185.4376,-15.0998 175.0566,-17.2179 184.4927,-22.0358 185.4376,-15.0998"/>
</g>
<!-- \\Thumber\\Cake\\Command\\ClearCommand -->
<g id="node5" class="node">
<title>\\Thumber\\Cake\\Command\\ClearCommand</title>
<polygon fill="none" stroke="#000000" points="425.2832,-630 327.2832,-630 327.2832,-594 425.2832,-594 425.2832,-630"/>
<text text-anchor="middle" x="376.2832" y="-609.2" font-family="Courier,monospace" font-size="11.00" fill="#000000">ClearCommand</text>
</g>
<!-- \\Thumber\\Cake\\Command\\ClearCommand&#45;&gt;Command -->
<g id="edge8" class="edge">
<title>\\Thumber\\Cake\\Command\\ClearCommand&#45;&gt;Command</title>
<path fill="none" stroke="#000000" d="M327.087,-611.8709C303.6265,-609.0359 277.3458,-601.2605 261.7832,-582 224.2461,-535.5437 275.7233,-91.1277 237.7832,-45 224.9746,-29.4273 204.8268,-21.9688 185.1986,-18.6343"/>
<polygon fill="none" stroke="#000000" points="185.4047,-15.13 175.0232,-17.2453 184.4579,-22.0657 185.4047,-15.13"/>
</g>
<!-- \\Thumber\\Cake\\TestSuite\\TestCase -->
<g id="node6" class="node">
<title>\\Thumber\\Cake\\TestSuite\\TestCase</title>
<polygon fill="none" stroke="#000000" points="418.2832,-550 334.2832,-550 334.2832,-514 418.2832,-514 418.2832,-550"/>
<text text-anchor="start" x="342.2832" y="-535.2" font-family="Courier,monospace" font-size="11.00" fill="#000000">«abstract»</text>
<text text-anchor="start" x="348.7832" y="-523.2" font-family="Courier,monospace" font-size="11.00" fill="#000000">TestCase</text>
</g>
<!-- TestCase -->
<g id="node13" class="node">
<title>TestCase</title>
<ellipse fill="none" stroke="#000000" cx="126.8916" cy="-403" rx="42.7926" ry="18"/>
<text text-anchor="middle" x="126.8916" y="-399.3" font-family="Times,serif" font-size="14.00" fill="#c0c0c0">TestCase</text>
</g>
<!-- \\Thumber\\Cake\\TestSuite\\TestCase&#45;&gt;TestCase -->
<g id="edge4" class="edge">
<title>\\Thumber\\Cake\\TestSuite\\TestCase&#45;&gt;TestCase</title>
<path fill="none" stroke="#000000" d="M334.0887,-526.3645C311.8372,-522.3393 284.5168,-515.6888 261.7832,-505 250.1607,-499.5354 191.4106,-453.891 155.3847,-425.5444"/>
<polygon fill="none" stroke="#000000" points="157.215,-422.5306 147.1943,-419.09 152.8822,-428.0286 157.215,-422.5306"/>
</g>
<!-- \\Thumber\\Cake\\TestSuite\\IntegrationTestTrait -->
<g id="node7" class="node">
<title>\\Thumber\\Cake\\TestSuite\\IntegrationTestTrait</title>
<polygon fill="none" stroke="#000000" points="452.2832,-496 300.2832,-496 300.2832,-460 452.2832,-460 452.2832,-496"/>
<text text-anchor="middle" x="376.2832" y="-475.2" font-family="Courier,monospace" font-size="11.00" fill="#000000">IntegrationTestTrait</text>
</g>
<!-- \\Thumber\\Cake\\Http\\Exception\\ThumbNotFoundException -->
<g id="node8" class="node">
<title>\\Thumber\\Cake\\Http\\Exception\\ThumbNotFoundException</title>
<polygon fill="none" stroke="#000000" points="458.7832,-388 293.7832,-388 293.7832,-352 458.7832,-352 458.7832,-388"/>
<text text-anchor="middle" x="376.2832" y="-367.2" font-family="Courier,monospace" font-size="11.00" fill="#000000">ThumbNotFoundException</text>
</g>
<!-- FileNotExistsException -->
<g id="node14" class="node">
<title>FileNotExistsException</title>
<ellipse fill="none" stroke="#000000" cx="126.8916" cy="-519" rx="94.7833" ry="18"/>
<text text-anchor="middle" x="126.8916" y="-515.3" font-family="Times,serif" font-size="14.00" fill="#c0c0c0">FileNotExistsException</text>
</g>
<!-- \\Thumber\\Cake\\Http\\Exception\\ThumbNotFoundException&#45;&gt;FileNotExistsException -->
<g id="edge6" class="edge">
<title>\\Thumber\\Cake\\Http\\Exception\\ThumbNotFoundException&#45;&gt;FileNotExistsException</title>
<path fill="none" stroke="#000000" d="M346.0388,-388.1605C317.9912,-404.9935 275.0868,-430.7213 237.7832,-453 213.5475,-467.4742 186.3055,-483.6887 164.8876,-496.4241"/>
<polygon fill="none" stroke="#000000" points="162.8978,-493.5352 156.0908,-501.6539 166.475,-499.5521 162.8978,-493.5352"/>
</g>
<!-- \\Thumber\\Cake\\Routing\\Middleware\\ThumbnailMiddleware -->
<g id="node9" class="node">
<title>\\Thumber\\Cake\\Routing\\Middleware\\ThumbnailMiddleware</title>
<polygon fill="none" stroke="#000000" points="448.7832,-272 303.7832,-272 303.7832,-236 448.7832,-236 448.7832,-272"/>
<text text-anchor="middle" x="376.2832" y="-251.2" font-family="Courier,monospace" font-size="11.00" fill="#000000">ThumbnailMiddleware</text>
</g>
<!-- \\Thumber\\Cake\\Plugin -->
<g id="node10" class="node">
<title>\\Thumber\\Cake\\Plugin</title>
<polygon fill="none" stroke="#000000" points="404.7832,-212 347.7832,-212 347.7832,-176 404.7832,-176 404.7832,-212"/>
<text text-anchor="middle" x="376.2832" y="-191.2" font-family="Courier,monospace" font-size="11.00" fill="#000000">Plugin</text>
</g>
<!-- BasePlugin -->
<g id="node12" class="node">
<title>BasePlugin</title>
<ellipse fill="none" stroke="#000000" cx="126.8916" cy="-635" rx="50.8918" ry="18"/>
<text text-anchor="middle" x="126.8916" y="-631.3" font-family="Times,serif" font-size="14.00" fill="#c0c0c0">BasePlugin</text>
</g>
<!-- \\Thumber\\Cake\\Plugin&#45;&gt;BasePlugin -->
<g id="edge5" class="edge">
<title>\\Thumber\\Cake\\Plugin&#45;&gt;BasePlugin</title>
<path fill="none" stroke="#000000" d="M347.6464,-192.8383C321.015,-193.4676 282.4348,-199.0796 261.7832,-224 212.7456,-283.1738 278.0635,-503.5499 237.7832,-569 223.386,-592.3935 197.3432,-608.5181 174.1123,-618.9704"/>
<polygon fill="none" stroke="#000000" points="172.5394,-615.836 164.7081,-622.9719 175.2801,-622.2771 172.5394,-615.836"/>
</g>
</g>
</svg>
