<?xml version="1.0" encoding="UTF-8" standalone="no"?>
<!DOCTYPE svg PUBLIC "-//W3C//DTD SVG 1.1//EN"
 "http://www.w3.org/Graphics/SVG/1.1/DTD/svg11.dtd">
<!-- Generated by graphviz version 2.40.1 (20161225.0304)
 -->
<!-- Title: G Pages: 1 -->
<svg width="515pt" height="570pt"
 viewBox="0.00 0.00 514.78 570.00" xmlns="http://www.w3.org/2000/svg" xmlns:xlink="http://www.w3.org/1999/xlink">
<g id="graph0" class="graph" transform="scale(1 1) rotate(0) translate(4 566)">
<title>G</title>
<polygon fill="#ffffff" stroke="transparent" points="-4,4 -4,-566 510.7832,-566 510.7832,4 -4,4"/>
<g id="clust1" class="cluster">
<title>cluster_Global</title>
<path fill="none" stroke="#c0c0c0" d="M20,-44C20,-44 486.7832,-44 486.7832,-44 492.7832,-44 498.7832,-50 498.7832,-56 498.7832,-56 498.7832,-542 498.7832,-542 498.7832,-548 492.7832,-554 486.7832,-554 486.7832,-554 20,-554 20,-554 14,-554 8,-548 8,-542 8,-542 8,-56 8,-56 8,-50 14,-44 20,-44"/>
<text text-anchor="middle" x="253.3916" y="-541.2" font-family="Times,serif" font-size="11.00" fill="#c0c0c0">Global</text>
</g>
<g id="clust2" class="cluster">
<title>cluster_\Thumber</title>
<path fill="none" stroke="#c0c0c0" d="M273.7832,-52C273.7832,-52 478.7832,-52 478.7832,-52 484.7832,-52 490.7832,-58 490.7832,-64 490.7832,-64 490.7832,-514 490.7832,-514 490.7832,-520 484.7832,-526 478.7832,-526 478.7832,-526 273.7832,-526 273.7832,-526 267.7832,-526 261.7832,-520 261.7832,-514 261.7832,-514 261.7832,-64 261.7832,-64 261.7832,-58 267.7832,-52 273.7832,-52"/>
<text text-anchor="middle" x="376.2832" y="-513.2" font-family="Times,serif" font-size="11.00" fill="#c0c0c0">Thumber</text>
</g>
<g id="clust3" class="cluster">
<title>cluster_\Thumber\Cake</title>
<path fill="none" stroke="#c0c0c0" d="M281.7832,-60C281.7832,-60 470.7832,-60 470.7832,-60 476.7832,-60 482.7832,-66 482.7832,-72 482.7832,-72 482.7832,-486 482.7832,-486 482.7832,-492 476.7832,-498 470.7832,-498 470.7832,-498 281.7832,-498 281.7832,-498 275.7832,-498 269.7832,-492 269.7832,-486 269.7832,-486 269.7832,-72 269.7832,-72 269.7832,-66 275.7832,-60 281.7832,-60"/>
<text text-anchor="middle" x="376.2832" y="-485.2" font-family="Times,serif" font-size="11.00" fill="#c0c0c0">Cake</text>
</g>
<g id="clust4" class="cluster">
<title>cluster_\Thumber\Cake\Utility</title>
<path fill="none" stroke="#c0c0c0" d="M331.2832,-344C331.2832,-344 421.2832,-344 421.2832,-344 427.2832,-344 433.2832,-350 433.2832,-356 433.2832,-356 433.2832,-458 433.2832,-458 433.2832,-464 427.2832,-470 421.2832,-470 421.2832,-470 331.2832,-470 331.2832,-470 325.2832,-470 319.2832,-464 319.2832,-458 319.2832,-458 319.2832,-356 319.2832,-356 319.2832,-350 325.2832,-344 331.2832,-344"/>
<text text-anchor="middle" x="376.2832" y="-457.2" font-family="Times,serif" font-size="11.00" fill="#c0c0c0">Utility</text>
</g>
<g id="clust5" class="cluster">
<title>cluster_\Thumber\Cake\Http</title>
<path fill="none" stroke="#c0c0c0" d="M289.7832,-228C289.7832,-228 462.7832,-228 462.7832,-228 468.7832,-228 474.7832,-234 474.7832,-240 474.7832,-240 474.7832,-324 474.7832,-324 474.7832,-330 468.7832,-336 462.7832,-336 462.7832,-336 289.7832,-336 289.7832,-336 283.7832,-336 277.7832,-330 277.7832,-324 277.7832,-324 277.7832,-240 277.7832,-240 277.7832,-234 283.7832,-228 289.7832,-228"/>
<text text-anchor="middle" x="376.2832" y="-323.2" font-family="Times,serif" font-size="11.00" fill="#c0c0c0">Http</text>
</g>
<g id="clust6" class="cluster">
<title>cluster_\Thumber\Cake\Http\Exception</title>
<path fill="none" stroke="#c0c0c0" d="M297.7832,-236C297.7832,-236 454.7832,-236 454.7832,-236 460.7832,-236 466.7832,-242 466.7832,-248 466.7832,-248 466.7832,-296 466.7832,-296 466.7832,-302 460.7832,-308 454.7832,-308 454.7832,-308 297.7832,-308 297.7832,-308 291.7832,-308 285.7832,-302 285.7832,-296 285.7832,-296 285.7832,-248 285.7832,-248 285.7832,-242 291.7832,-236 297.7832,-236"/>
<text text-anchor="middle" x="376.2832" y="-295.2" font-family="Times,serif" font-size="11.00" fill="#c0c0c0">Exception</text>
</g>
<g id="clust7" class="cluster">
<title>cluster_\Thumber\Cake\Routing</title>
<path fill="none" stroke="#c0c0c0" d="M299.7832,-112C299.7832,-112 452.7832,-112 452.7832,-112 458.7832,-112 464.7832,-118 464.7832,-124 464.7832,-124 464.7832,-208 464.7832,-208 464.7832,-214 458.7832,-220 452.7832,-220 452.7832,-220 299.7832,-220 299.7832,-220 293.7832,-220 287.7832,-214 287.7832,-208 287.7832,-208 287.7832,-124 287.7832,-124 287.7832,-118 293.7832,-112 299.7832,-112"/>
<text text-anchor="middle" x="376.2832" y="-207.2" font-family="Times,serif" font-size="11.00" fill="#c0c0c0">Routing</text>
</g>
<g id="clust8" class="cluster">
<title>cluster_\Thumber\Cake\Routing\Middleware</title>
<path fill="none" stroke="#c0c0c0" d="M307.7832,-120C307.7832,-120 444.7832,-120 444.7832,-120 450.7832,-120 456.7832,-126 456.7832,-132 456.7832,-132 456.7832,-180 456.7832,-180 456.7832,-186 450.7832,-192 444.7832,-192 444.7832,-192 307.7832,-192 307.7832,-192 301.7832,-192 295.7832,-186 295.7832,-180 295.7832,-180 295.7832,-132 295.7832,-132 295.7832,-126 301.7832,-120 307.7832,-120"/>
<text text-anchor="middle" x="376.2832" y="-179.2" font-family="Times,serif" font-size="11.00" fill="#c0c0c0">Middleware</text>
</g>
<g id="clust9" class="cluster">
<title>cluster_Global\Thumber</title>
<path fill="none" stroke="#c0c0c0" d="M67.8472,-148C67.8472,-148 185.936,-148 185.936,-148 191.936,-148 197.936,-154 197.936,-160 197.936,-160 197.936,-208 197.936,-208 197.936,-214 191.936,-220 185.936,-220 185.936,-220 67.8472,-220 67.8472,-220 61.8472,-220 55.8472,-214 55.8472,-208 55.8472,-208 55.8472,-160 55.8472,-160 55.8472,-154 61.8472,-148 67.8472,-148"/>
<text text-anchor="middle" x="126.8916" y="-207.2" font-family="Times,serif" font-size="11.00" fill="#c0c0c0">Thumber</text>
</g>
<g id="clust10" class="cluster">
<title>cluster_Global\Cake</title>
<path fill="none" stroke="#c0c0c0" d="M72.1961,-344C72.1961,-344 181.5871,-344 181.5871,-344 187.5871,-344 193.5871,-350 193.5871,-356 193.5871,-356 193.5871,-440 193.5871,-440 193.5871,-446 187.5871,-452 181.5871,-452 181.5871,-452 72.1961,-452 72.1961,-452 66.1961,-452 60.1961,-446 60.1961,-440 60.1961,-440 60.1961,-356 60.1961,-356 60.1961,-350 66.1961,-344 72.1961,-344"/>
<text text-anchor="middle" x="126.8916" y="-439.2" font-family="Times,serif" font-size="11.00" fill="#c0c0c0">Cake</text>
</g>
<g id="clust11" class="cluster">
<title>cluster_Global\Cake\Core</title>
<path fill="none" stroke="#c0c0c0" d="M80.1961,-352C80.1961,-352 173.5871,-352 173.5871,-352 179.5871,-352 185.5871,-358 185.5871,-364 185.5871,-364 185.5871,-412 185.5871,-412 185.5871,-418 179.5871,-424 173.5871,-424 173.5871,-424 80.1961,-424 80.1961,-424 74.1961,-424 68.1961,-418 68.1961,-412 68.1961,-412 68.1961,-364 68.1961,-364 68.1961,-358 74.1961,-352 80.1961,-352"/>
<text text-anchor="middle" x="126.8916" y="-411.2" font-family="Times,serif" font-size="11.00" fill="#c0c0c0">Core</text>
</g>
<g id="clust12" class="cluster">
<title>cluster_Global\Tools</title>
<path fill="none" stroke="#c0c0c0" d="M28,-228C28,-228 225.7832,-228 225.7832,-228 231.7832,-228 237.7832,-234 237.7832,-240 237.7832,-240 237.7832,-324 237.7832,-324 237.7832,-330 231.7832,-336 225.7832,-336 225.7832,-336 28,-336 28,-336 22,-336 16,-330 16,-324 16,-324 16,-240 16,-240 16,-234 22,-228 28,-228"/>
<text text-anchor="middle" x="126.8916" y="-323.2" font-family="Times,serif" font-size="11.00" fill="#c0c0c0">Tools</text>
</g>
<g id="clust13" class="cluster">
<title>cluster_Global\Tools\Exception</title>
<path fill="none" stroke="#c0c0c0" d="M36,-236C36,-236 217.7832,-236 217.7832,-236 223.7832,-236 229.7832,-242 229.7832,-248 229.7832,-248 229.7832,-296 229.7832,-296 229.7832,-302 223.7832,-308 217.7832,-308 217.7832,-308 36,-308 36,-308 30,-308 24,-302 24,-296 24,-296 24,-248 24,-248 24,-242 30,-236 36,-236"/>
<text text-anchor="middle" x="126.8916" y="-295.2" font-family="Times,serif" font-size="11.00" fill="#c0c0c0">Exception</text>
</g>
<!-- \\Thumber\\Cake\\Utility\\ThumbManager -->
<g id="node1" class="node">
<title>\\Thumber\\Cake\\Utility\\ThumbManager</title>
<polygon fill="none" stroke="#000000" points="425.2832,-388 327.2832,-388 327.2832,-352 425.2832,-352 425.2832,-388"/>
<text text-anchor="middle" x="376.2832" y="-367.2" font-family="Courier,monospace" font-size="11.00" fill="#000000">ThumbManager</text>
</g>
<!-- ThumbManager -->
<g id="node9" class="node">
<title>ThumbManager</title>
<ellipse fill="none" stroke="#000000" cx="126.8916" cy="-18" rx="68.4888" ry="18"/>
<text text-anchor="middle" x="126.8916" y="-14.3" font-family="Times,serif" font-size="14.00" fill="#000000">ThumbManager</text>
</g>
<!-- \\Thumber\\Cake\\Utility\\ThumbManager&#45;&gt;ThumbManager -->
<g id="edge1" class="edge">
<title>\\Thumber\\Cake\\Utility\\ThumbManager&#45;&gt;ThumbManager</title>
<path fill="none" stroke="#000000" d="M327.1549,-356.7964C303.7119,-347.9533 277.4265,-333.824 261.7832,-312 217.8416,-250.6972 269.349,-212.5017 237.7832,-144 218.884,-102.9866 182.2303,-65.4558 156.2429,-42.2204"/>
<polygon fill="none" stroke="#000000" points="158.3793,-39.4389 148.5517,-35.4804 153.7657,-44.7034 158.3793,-39.4389"/>
</g>
<!-- \\Thumber\\Cake\\Utility\\ThumbCreator -->
<g id="node2" class="node">
<title>\\Thumber\\Cake\\Utility\\ThumbCreator</title>
<polygon fill="none" stroke="#000000" points="425.2832,-442 327.2832,-442 327.2832,-406 425.2832,-406 425.2832,-442"/>
<text text-anchor="middle" x="376.2832" y="-421.2" font-family="Courier,monospace" font-size="11.00" fill="#000000">ThumbCreator</text>
</g>
<!-- ThumbCreator -->
<g id="node6" class="node">
<title>ThumbCreator</title>
<ellipse fill="none" stroke="#000000" cx="126.8916" cy="-174" rx="63.0888" ry="18"/>
<text text-anchor="middle" x="126.8916" y="-170.3" font-family="Times,serif" font-size="14.00" fill="#c0c0c0">ThumbCreator</text>
</g>
<!-- \\Thumber\\Cake\\Utility\\ThumbCreator&#45;&gt;ThumbCreator -->
<g id="edge4" class="edge">
<title>\\Thumber\\Cake\\Utility\\ThumbCreator&#45;&gt;ThumbCreator</title>
<path fill="none" stroke="#000000" d="M327.1134,-424.4731C304.0997,-422.0118 278.204,-414.9178 261.7832,-397 211.715,-342.3673 280.6395,-292.4557 237.7832,-232 224.1632,-212.7868 202.1952,-199.4455 181.3909,-190.4482"/>
<polygon fill="none" stroke="#000000" points="182.5303,-187.1334 171.9482,-186.6145 179.897,-193.6193 182.5303,-187.1334"/>
</g>
<!-- \\Thumber\\Cake\\Http\\Exception\\ThumbNotFoundException -->
<g id="node3" class="node">
<title>\\Thumber\\Cake\\Http\\Exception\\ThumbNotFoundException</title>
<polygon fill="none" stroke="#000000" points="458.7832,-280 293.7832,-280 293.7832,-244 458.7832,-244 458.7832,-280"/>
<text text-anchor="middle" x="376.2832" y="-259.2" font-family="Courier,monospace" font-size="11.00" fill="#000000">ThumbNotFoundException</text>
</g>
<!-- FileNotExistsException -->
<g id="node8" class="node">
<title>FileNotExistsException</title>
<ellipse fill="none" stroke="#000000" cx="126.8916" cy="-262" rx="94.7833" ry="18"/>
<text text-anchor="middle" x="126.8916" y="-258.3" font-family="Times,serif" font-size="14.00" fill="#c0c0c0">FileNotExistsException</text>
</g>
<!-- \\Thumber\\Cake\\Http\\Exception\\ThumbNotFoundException&#45;&gt;FileNotExistsException -->
<g id="edge3" class="edge">
<title>\\Thumber\\Cake\\Http\\Exception\\ThumbNotFoundException&#45;&gt;FileNotExistsException</title>
<path fill="none" stroke="#000000" d="M293.5858,-262C273.8462,-262 252.5168,-262 231.9215,-262"/>
<polygon fill="none" stroke="#000000" points="231.8804,-258.5001 221.8803,-262 231.8803,-265.5001 231.8804,-258.5001"/>
</g>
<!-- \\Thumber\\Cake\\Routing\\Middleware\\ThumbnailMiddleware -->
<g id="node4" class="node">
<title>\\Thumber\\Cake\\Routing\\Middleware\\ThumbnailMiddleware</title>
<polygon fill="none" stroke="#000000" points="448.7832,-164 303.7832,-164 303.7832,-128 448.7832,-128 448.7832,-164"/>
<text text-anchor="middle" x="376.2832" y="-143.2" font-family="Courier,monospace" font-size="11.00" fill="#000000">ThumbnailMiddleware</text>
</g>
<!-- \\Thumber\\Cake\\Plugin -->
<g id="node5" class="node">
<title>\\Thumber\\Cake\\Plugin</title>
<polygon fill="none" stroke="#000000" points="404.7832,-104 347.7832,-104 347.7832,-68 404.7832,-68 404.7832,-104"/>
<text text-anchor="middle" x="376.2832" y="-83.2" font-family="Courier,monospace" font-size="11.00" fill="#000000">Plugin</text>
</g>
<!-- BasePlugin -->
<g id="node7" class="node">
<title>BasePlugin</title>
<ellipse fill="none" stroke="#000000" cx="126.8916" cy="-378" rx="50.8918" ry="18"/>
<text text-anchor="middle" x="126.8916" y="-374.3" font-family="Times,serif" font-size="14.00" fill="#c0c0c0">BasePlugin</text>
</g>
<!-- \\Thumber\\Cake\\Plugin&#45;&gt;BasePlugin -->
<g id="edge2" class="edge">
<title>\\Thumber\\Cake\\Plugin&#45;&gt;BasePlugin</title>
<path fill="none" stroke="#000000" d="M347.6811,-85.0901C321.268,-85.927 283.0128,-91.7064 261.7832,-116 204.0336,-182.0841 285.7235,-238.4891 237.7832,-312 222.7782,-335.0084 196.7098,-351.1167 173.6172,-361.6567"/>
<polygon fill="none" stroke="#000000" points="172.0649,-358.5148 164.2784,-365.6997 174.8459,-364.9387 172.0649,-358.5148"/>
</g>
</g>
</svg>
